# Exported from Wings 3D 1.4.1
mtllib base.mtl
o sphere1
#49 vertices, 42 faces
v 2.22455793 0.0000000e+0 -0.50443436
v 2.05522354 0.27059805 -0.50443436
v 1.57300000 0.50000000 -0.50443436
v 0.85130147 0.65328148 -0.50443436
v 7.4290168e-18 0.70710678 -0.50443436
v -0.85130147 0.65328148 -0.50443436
v -1.57300000 0.50000000 -0.50443436
v -2.05522354 0.27059805 -0.50443436
v -2.22455793 1.1102230e-16 -0.50443436
v 3.29310389 0.0000000e+0 -0.38268343
v 2.68527897 0.35355339 -0.38268343
v 2.04674294 0.63796931 -0.38268343
v 1.11227897 0.85355339 -0.38268343
v -5.4590473e-4 0.95222651 -0.38268343
v -1.11633352 0.87758988 -0.38268343
v -2.06216947 0.66934814 -0.38268343
v -2.68527897 0.35355339 -0.38268343
v -3.33814220 1.1102230e-16 -0.38268343
v 3.53257888 -5.5511151e-17 -8.3266727e-17
v 2.90652501 0.38268343 -8.3266727e-17
v 2.22052159 0.67501358 -5.5511151e-17
v 1.20392208 0.92387953 -2.7755576e-17
v 6.8821512e-3 1.02798369 -2.7755576e-17
v -1.20067662 0.95652318 -2.7755576e-17
v -2.22544327 0.73944069 -5.5511151e-17
v -2.90652501 0.38268343 -8.3266727e-17
v -3.57761719 1.1102230e-16 -8.3266727e-17
v 3.29310389 -5.5511151e-17 0.38268343
v 2.68527897 0.35355339 0.38268343
v 2.05522354 0.65328148 0.38268343
v 1.11227897 0.85355339 0.38268343
v 4.9187457e-17 0.92387953 0.38268343
v -1.11227897 0.85355339 0.38268343
v -2.05522354 0.65328148 0.38268343
v -2.68527897 0.35355339 0.38268343
v -3.33814220 5.5511151e-17 0.38268343
v -1.2878587e-16 5.5511151e-17 -0.60028495
v 1.72321586 0.83268098 -4.1633363e-17
v 1.58729235 0.78363499 -0.38268343
v 1.21215073 0.57664074 -0.50443436
v 0.60225624 0.93136400 -2.7755576e-17
v 0.54950803 0.86296156 -0.38268343
v 0.42565073 0.68019413 -0.50443436
v -0.59787448 0.93566067 -2.7755576e-17
v -0.55941695 0.85831543 -0.38268343
v -0.42565073 0.68019413 -0.50443436
v -1.70698423 0.79751148 -4.1633363e-17
v -1.58317577 0.72299855 -0.38268343
v -1.21215073 0.57664074 -0.50443436
vn 8.9575772e-2 0.14665336 -0.98512384
vn 7.8275314e-2 0.22554422 -0.97108330
vn 3.2139896e-2 0.30419991 -0.95206588
vn -5.2020266e-4 0.31398788 -0.94942685
vn -3.8017119e-2 0.29684502 -0.95416861
vn -7.0001250e-2 0.24178042 -0.96780269
vn -8.7882539e-2 0.14074192 -0.98613811
vn 0.32583870 0.61841073 -0.71512049
vn 0.26022871 0.70491287 -0.65983246
vn 7.3328731e-2 0.80305703 -0.59137324
vn 6.4020789e-5 0.80435847 -0.59414430
vn -0.10489229 0.78037713 -0.61644881
vn -0.21139837 0.71800078 -0.66316333
vn -0.33035159 0.60304663 -0.72608717
vn 0.45893496 0.88846035 -4.1120989e-3
vn 0.33454130 0.94237969 -1.6231835e-3
vn 0.11833135 0.99294771 7.2482992e-3
vn 4.2665227e-3 0.99997046 -6.3926900e-3
vn -0.13546014 0.99075778 -7.0410793e-3
vn -0.30769226 0.95145794 7.2979856e-3
vn -0.46967300 0.88283128 4.0245490e-3
vn 0.22833755 0.97145973 -6.4249193e-2
vn 0.17665206 0.75849590 -0.62727827
vn 6.8627900e-2 0.31196380 -0.94761216
vn 8.3219866e-2 0.99417828 -6.8439748e-2
vn 6.8185822e-2 0.81291505 -0.57837688
vn 2.8833934e-2 0.38609112 -0.92200990
vn -6.1501099e-2 0.99581640 -6.7581915e-2
vn -5.0661313e-2 0.80998400 -0.58425966
vn -2.4364144e-2 0.38413383 -0.92295590
vn -0.20807331 0.97427438 -8.6573245e-2
vn -0.16282060 0.76218236 -0.62655208
vn -7.1219141e-2 0.33564443 -0.93929263
vn 8.7864105e-2 9.6031595e-2 -0.99149273
vn 8.7864105e-2 9.6031595e-2 -0.99149273
vn -2.0345967e-17 -1.00000000 -6.2459922e-17
vn -8.6026062e-2 9.8391357e-2 -0.99142254
vn -8.6026062e-2 9.8391357e-2 -0.99142254
vn -2.0345967e-17 -1.00000000 -6.2459922e-17
vn 0.35468391 0.56171556 -0.74744562
vn 0.35468391 0.56171556 -0.74744562
vn -2.0345967e-17 -1.00000000 -6.2459922e-17
vn -0.34063143 0.57691992 -0.74238375
vn -0.34063143 0.57691992 -0.74238375
vn -2.0345967e-17 -1.00000000 -6.2459922e-17
vn 0.51240095 0.85874633 0.0000000e+0
vn 0.51240095 0.85874633 0.0000000e+0
vn -2.0345967e-17 -1.00000000 -6.2459922e-17
vn -0.48599903 0.87395935 5.8383266e-17
vn -0.48599903 0.87395935 5.8383266e-17
vn -2.0345967e-17 -1.00000000 -6.2459922e-17
vn 0.48496007 0.81275742 0.32286081
vn 6.5229191e-18 0.0000000e+0 1.00000000
vn -2.0345967e-17 -1.00000000 -6.2459922e-17
vn 0.44154966 0.84860490 0.29138225
vn 0.44154966 0.84860490 0.29138225
vn 6.5229191e-18 0.0000000e+0 1.00000000
vn 0.30821592 0.91867747 0.24705193
vn 0.30821592 0.91867747 0.24705193
vn 6.5229191e-18 0.0000000e+0 1.00000000
vn 0.14617590 0.96798553 0.20405052
vn 0.14617590 0.96798553 0.20405052
vn 6.5229191e-18 0.0000000e+0 1.00000000
vn 7.1918974e-3 0.98266692 0.18524037
vn 7.1918974e-3 0.98266692 0.18524037
vn 6.5229191e-18 0.0000000e+0 1.00000000
vn -0.13109165 0.96741769 0.21660563
vn -0.13109165 0.96741769 0.21660563
vn 6.5229191e-18 0.0000000e+0 1.00000000
vn -0.31399959 0.90355349 0.29153962
vn -0.31399959 0.90355349 0.29153962
vn 6.5229191e-18 0.0000000e+0 1.00000000
vn -0.44157688 0.83594165 0.32590093
vn -0.44157688 0.83594165 0.32590093
vn 6.5229191e-18 0.0000000e+0 1.00000000
vn -0.46209073 0.83096567 0.30978736
vn 6.5229191e-18 0.0000000e+0 1.00000000
vn -2.0345967e-17 -1.00000000 -6.2459922e-17
vn -9.5536007e-18 8.8088507e-2 -0.99611265
vn -9.5536007e-18 8.8088507e-2 -0.99611265
vn -1.0856364e-17 8.8088507e-2 -0.99611265
vn -1.0422110e-17 8.8088507e-2 -0.99611265
vn -1.1942001e-17 8.8088507e-2 -0.99611265
vn -1.0422110e-17 8.8088507e-2 -0.99611265
vn -1.1290619e-17 8.8088507e-2 -0.99611265
vn -1.1290619e-17 8.8088507e-2 -0.99611265
vn -2.0345967e-17 -1.00000000 -6.2459922e-17
g sphere1
usemtl default
s 1
f 10//42 19//48 28//54 36//78 27//51 18//45 9//39 37//87 1//36
s 2
f 29//57 30//60 31//63 32//66 33//69 34//72 35//75 36//77 28//53
s 3
f 1//35 37//79 2//1
f 2//1 11//8 10//40 1//34
f 2//1 37//80 3//2
f 3//2 12//9 11//8 2//1
f 3//2 37//81 4//3 40//24
f 4//3 37//82 5//4 43//27
f 5//4 37//83 6//5 46//30
f 6//5 37//84 7//6 49//33
f 7//6 37//85 8//7
f 8//7 17//14 16//13 7//6
f 8//7 37//86 9//38
f 9//37 18//43 17//14 8//7
f 11//8 20//15 19//46 10//41
f 12//9 21//16 20//15 11//8
f 13//10 39//23 40//24 4//3
f 14//11 42//26 43//27 5//4
f 15//12 45//29 46//30 6//5
f 16//13 48//32 49//33 7//6
f 17//14 26//21 25//20 16//13
f 18//44 27//49 26//21 17//14
f 20//15 29//55 28//52 19//47
f 21//16 30//58 29//56 20//15
f 22//17 38//22 39//23 13//10
f 23//18 41//25 42//26 14//11
f 24//19 44//28 45//29 15//12
f 25//20 47//31 48//32 16//13
f 26//21 35//73 34//71 25//20
f 27//50 36//76 35//74 26//21
f 38//22 22//17 31//61 30//59 21//16
f 39//23 38//22 21//16 12//9
f 40//24 39//23 12//9 3//2
f 41//25 23//18 32//64 31//62 22//17
f 42//26 41//25 22//17 13//10
f 43//27 42//26 13//10 4//3
f 44//28 24//19 33//67 32//65 23//18
f 45//29 44//28 23//18 14//11
f 46//30 45//29 14//11 5//4
f 47//31 25//20 34//70 33//68 24//19
f 48//32 47//31 24//19 15//12
f 49//33 48//32 15//12 6//5
