# Exported from Wings 3D 1.4.1
mtllib ship.mtl
o sphere1
#193 vertices, 201 faces
v 0.41033878 1.30856605 1.3478315e-16
v 0.37910360 1.30856605 0.15702985
v 0.29015334 1.30856605 0.29015334
v 0.15702985 1.30856605 0.37910360
v 2.2800146e-17 1.30856605 0.41033878
v -0.15702985 1.30856605 0.37910360
v -0.29015334 1.30856605 0.29015334
v -0.37910360 1.30856605 0.15702985
v -0.41033878 1.30856605 1.1145331e-16
v -0.37910360 1.30856605 -0.15702985
v -0.29015334 1.30856605 -0.29015334
v -0.15702985 1.30856605 -0.37910360
v -6.5724682e-17 1.30856605 -0.41033878
v 0.15702985 1.30856605 -0.37910360
v 0.29015334 1.30856605 -0.29015334
v 0.37910360 1.30856605 -0.15702985
v 0.73495844 1.04884689 -2.4498319e-18
v 0.67901306 1.04884689 0.28125642
v 0.51969410 1.04884689 0.51969410
v 0.28125642 1.04884689 0.67901306
v 4.3297803e-17 1.04884689 0.73495844
v -0.28125642 1.04884689 0.67901306
v -0.51969410 1.04884689 0.51969410
v -0.67901306 1.04884689 0.28125642
v -0.73495844 1.04884689 9.1145294e-17
v -0.67901306 1.04884689 -0.28125642
v -0.51969410 1.04884689 -0.51969410
v -0.28125642 1.04884689 -0.67901306
v -1.3164329e-16 1.04884689 -0.73495844
v 0.28125642 1.04884689 -0.67901306
v 0.51969410 1.04884689 -0.51969410
v 0.67901306 1.04884689 -0.28125642
v 0.92387953 0.68274059 0.0000000e+0
v 0.85355339 0.68274059 0.35355339
v 0.65328148 0.68274059 0.65328148
v 0.35355339 0.68274059 0.85355339
v 5.6571306e-17 0.68274059 0.92387953
v -0.35355339 0.68274059 0.85355339
v -0.65328148 0.68274059 0.65328148
v -0.85355339 0.68274059 0.35355339
v -0.92387953 0.68274059 1.1314261e-16
v -0.85355339 0.68274059 -0.35355339
v -0.65328148 0.68274059 -0.65328148
v -0.35355339 0.68274059 -0.85355339
v -1.6971392e-16 0.68274059 -0.92387953
v 0.35355339 0.68274059 -0.85355339
v 0.65328148 0.68274059 -0.65328148
v 0.85355339 0.68274059 -0.35355339
v 1.00000000 0.30005715 0.0000000e+0
v 0.92387953 0.30005715 0.38268343
v 0.70710678 0.30005715 0.70710678
v 0.38268343 0.30005715 0.92387953
v 6.1232340e-17 0.30005715 1.00000000
v -0.38268343 0.30005715 0.92387953
v -0.70710678 0.30005715 0.70710678
v -0.92387953 0.30005715 0.38268343
v -1.00000000 0.30005715 1.2246468e-16
v -0.92387953 0.30005715 -0.38268343
v -0.70710678 0.30005715 -0.70710678
v -0.38268343 0.30005715 -0.92387953
v -1.8369702e-16 0.30005715 -1.00000000
v 0.38268343 0.30005715 -0.92387953
v 0.70710678 0.30005715 -0.70710678
v 0.92387953 0.30005715 -0.38268343
v 0.92387953 -8.2626280e-2 0.0000000e+0
v 0.85355339 -8.2626280e-2 0.35355339
v 0.65328148 -8.2626280e-2 0.65328148
v 0.35355339 -8.2626280e-2 0.85355339
v 5.6571306e-17 -8.2626280e-2 0.92387953
v -0.35355339 -8.2626280e-2 0.85355339
v -0.65328148 -8.2626280e-2 0.65328148
v -0.85355339 -8.2626280e-2 0.35355339
v -0.92387953 -8.2626280e-2 1.1314261e-16
v -0.85355339 -8.2626280e-2 -0.35355339
v -0.65328148 -8.2626280e-2 -0.65328148
v -0.35355339 -8.2626280e-2 -0.85355339
v -1.6971392e-16 -8.2626280e-2 -0.92387953
v 0.35355339 -8.2626280e-2 -0.85355339
v 0.65328148 -8.2626280e-2 -0.65328148
v 0.85355339 -8.2626280e-2 -0.35355339
v 0.38268343 -0.81885752 0.0000000e+0
v 0.35355339 -0.81885752 0.14644661
v 0.27059805 -0.81885752 0.27059805
v 0.14644661 -0.81885752 0.35355339
v 2.3432602e-17 -0.81885752 0.38268343
v -0.14644661 -0.81885752 0.35355339
v -0.27059805 -0.81885752 0.27059805
v -0.35355339 -0.81885752 0.14644661
v -0.38268343 -0.81885752 4.6865204e-17
v -0.35355339 -0.81885752 -0.14644661
v -0.27059805 -0.81885752 -0.27059805
v -0.14644661 -0.81885752 -0.35355339
v -7.0297806e-17 -0.81885752 -0.38268343
v 0.14644661 -0.81885752 -0.35355339
v 0.27059805 -0.81885752 -0.27059805
v 0.35355339 -0.81885752 -0.14644661
v 3.4440697e-17 1.40830690 4.8348319e-17
v 0.20622335 -1.38211296 -0.65407134
v 5.9776736e-2 -1.38211296 -0.68320138
v -0.65407134 -1.26861440 -0.20622335
v -0.68320138 -1.26861440 -5.9776736e-2
v -0.14350046 -1.26861440 0.57492102
v 2.9461532e-3 -1.26861440 0.60405106
v 0.65407134 -1.26861440 0.20622335
v 0.68320138 -1.26861440 5.9776736e-2
v 0.15965147 -1.65761543 -0.62429167
v 9.1407352e-2 -1.65761543 -0.63786627
v -0.65404287 -1.48751672 -0.16556935
v -0.66761747 -1.48751672 -9.7325233e-2
v -9.6928583e-2 -1.54411687 0.54514136
v -2.8684463e-2 -1.54411687 0.55871596
v 0.62429167 -1.54411687 0.15965147
v 0.63786627 -1.54411687 9.1407352e-2
v 0.69871135 -0.60208476 4.2206681e-2
v 0.67132568 -0.62599293 0.0000000e+0
v 0.66167691 -0.60208476 0.22839137
v 0.62022406 -0.62599293 0.25690522
v 0.46421890 -0.60208476 0.52390816
v 0.30637915 -0.60208476 0.62937332
v -4.2206681e-2 -0.60208476 0.69871135
v 4.1106843e-17 -0.62599293 0.67132568
v -0.22839137 -0.60208476 0.66167691
v -0.25690522 -0.62599293 0.62022406
v -0.52390816 -0.60208476 0.46421890
v -0.62937332 -0.60208476 0.30637915
v -0.69871135 -0.60208476 -4.2206681e-2
v -0.67132568 -0.62599293 8.2213685e-17
v -0.66167691 -0.60208476 -0.22839137
v -0.62022406 -0.62599293 -0.25690522
v -0.46421890 -0.60208476 -0.52390816
v -0.30637915 -0.60208476 -0.62937332
v 4.2206681e-2 -0.60208476 -0.69871135
v -1.2332053e-16 -0.62599293 -0.67132568
v 0.22839137 -0.60208476 -0.66167691
v 0.25690522 -0.62599293 -0.62022406
v 0.47469894 -0.62599293 -0.47469894
v 0.62022406 -0.62599293 -0.25690522
v 0.10198342 -1.38503786 -0.99922930
v 5.9776736e-2 -1.38464990 -0.96459292
v 0.31390723 -1.38464990 -0.91404322
v 0.28816810 -1.38503786 -0.96219486
v -0.99922930 -1.27153930 -0.10198342
v -0.96459292 -1.27115134 -5.9776736e-2
v -0.91404322 -1.27115134 -0.31390723
v -0.96219486 -1.27153930 -0.28816810
v -3.9260528e-2 -1.27153930 0.92007898
v 2.9461532e-3 -1.27115134 0.88544260
v -0.25118434 -1.27115134 0.83489291
v -0.22544522 -1.27153930 0.88304455
v 0.99922930 -1.27153930 0.10198342
v 0.96459292 -1.27115134 5.9776736e-2
v 0.91404322 -1.27115134 0.31390723
v 0.96219486 -1.27153930 0.28816810
v 0.13361403 -1.73708208 -0.78065212
v 9.1407352e-2 -1.71705957 -0.75095574
v 0.20292894 -1.71705957 -0.72877271
v 0.17529936 -1.73708208 -0.77236039
v -0.81040332 -1.56698337 -0.13953191
v -0.78070693 -1.54696086 -9.7325233e-2
v -0.75852391 -1.54696086 -0.20884682
v -0.80211159 -1.56698337 -0.18121724
v -7.0891144e-2 -1.62358352 0.70150181
v -2.8684463e-2 -1.60356101 0.67180542
v -0.14020605 -1.60356101 0.64962240
v -0.11257647 -1.62358352 0.69321008
v 0.78065212 -1.62358352 0.13361403
v 0.75095574 -1.60356101 9.1407352e-2
v 0.72877271 -1.60356101 0.20292894
v 0.77236039 -1.62358352 0.17529936
v -7.2095049e-2 -0.93681203 0.86982001
v 0.25827974 -0.93681203 -0.91193589
v 0.86713364 -0.94857213 0.28540622
v 0.91795930 -0.94857213 2.9888368e-2
v -2.9888368e-2 -0.94857213 0.83880899
v 0.94897032 -0.93681203 7.2095049e-2
v -0.25827974 -0.93681203 0.83278557
v -0.91795930 -0.94857213 -2.9888368e-2
v 0.28540622 -0.94857213 -0.86713364
v -0.86713364 -0.94857213 -0.28540622
v -0.94897032 -0.93681203 -7.2095049e-2
v -0.91193589 -0.93681203 -0.25827974
v 2.9888368e-2 -0.94857213 -0.91795930
v 7.2095049e-2 -0.93681203 -0.94897032
v -0.28540622 -0.94857213 0.78798333
v 0.91193589 -0.93681203 0.25827974
v 0.63294240 -1.04373596 2.9888368e-2
v 0.60381236 -1.04373596 0.17633498
v -2.9888368e-2 -1.04373596 0.55379209
v -0.17633498 -1.04373596 0.52466205
v -0.63294240 -1.04373596 -2.9888368e-2
v -0.60381236 -1.04373596 -0.17633498
v 2.9888368e-2 -1.04373596 -0.63294240
v 0.17633498 -1.04373596 -0.60381236
vn 0.44025979 0.89787043 6.0677649e-17
vn 0.40674701 0.89787043 0.16848013
vn 0.31131068 0.89787043 0.31131068
vn 0.16848013 0.89787043 0.40674701
vn -3.5692735e-18 0.89787043 0.44025979
vn -0.16848013 0.89787043 0.40674701
vn -0.31131068 0.89787043 0.31131068
vn -0.40674701 0.89787043 0.16848013
vn -0.44025979 0.89787043 7.1385469e-17
vn -0.40674701 0.89787043 -0.16848013
vn -0.31131068 0.89787043 -0.31131068
vn -0.16848013 0.89787043 -0.40674701
vn 4.6400555e-17 0.89787043 -0.44025979
vn 0.16848013 0.89787043 -0.40674701
vn 0.31131068 0.89787043 -0.31131068
vn 0.40674701 0.89787043 -0.16848013
vn 0.77313843 0.63423732 -3.5883205e-17
vn 0.71428677 0.63423732 0.29586727
vn 0.54669142 0.63423732 0.54669142
vn 0.29586727 0.63423732 0.71428677
vn 0.0000000e+0 0.63423732 0.77313843
vn -0.29586727 0.63423732 0.71428677
vn -0.54669142 0.63423732 0.54669142
vn -0.71428677 0.63423732 0.29586727
vn -0.77313843 0.63423732 1.5788610e-16
vn -0.71428677 0.63423732 -0.29586727
vn -0.54669142 0.63423732 -0.54669142
vn -0.29586727 0.63423732 -0.71428677
vn -2.1529923e-17 0.63423732 -0.77313843
vn 0.29586727 0.63423732 -0.71428677
vn 0.54669142 0.63423732 -0.54669142
vn 0.71428677 0.63423732 -0.29586727
vn 0.94388286 0.33028040 -1.2830086e-16
vn 0.87203406 0.33028040 0.36120833
vn 0.66742597 0.33028040 0.66742597
vn 0.36120833 0.33028040 0.87203406
vn 0.0000000e+0 0.33028040 0.94388286
vn -0.36120833 0.33028040 0.87203406
vn -0.66742597 0.33028040 0.66742597
vn -0.87203406 0.33028040 0.36120833
vn -0.94388286 0.33028040 1.6393999e-16
vn -0.87203406 0.33028040 -0.36120833
vn -0.66742597 0.33028040 -0.66742597
vn -0.36120833 0.33028040 -0.87203406
vn -1.1404521e-16 0.33028040 -0.94388286
vn 0.36120833 0.33028040 -0.87203406
vn 0.66742597 0.33028040 -0.66742597
vn 0.87203406 0.33028040 -0.36120833
vn 1.00000000 0.0000000e+0 -1.5137246e-16
vn 0.92387953 7.2082126e-18 0.38268343
vn 0.70710678 -7.2082126e-18 0.70710678
vn 0.38268343 -1.4416425e-17 0.92387953
vn 0.0000000e+0 0.0000000e+0 1.00000000
vn -0.38268343 0.0000000e+0 0.92387953
vn -0.70710678 -2.1624638e-17 0.70710678
vn -0.92387953 -7.2082126e-18 0.38268343
vn -1.00000000 -1.4416425e-17 1.2974783e-16
vn -0.92387953 -2.1624638e-17 -0.38268343
vn -0.70710678 -7.2082126e-18 -0.70710678
vn -0.38268343 -7.2082126e-18 -0.92387953
vn -1.4416425e-16 7.2082126e-18 -1.00000000
vn 0.38268343 0.0000000e+0 -0.92387953
vn 0.70710678 -7.2082126e-18 -0.70710678
vn 0.92387953 -2.1624638e-17 -0.38268343
vn 0.95395231 -0.29995141 -2.0353837e-3
vn 0.88205840 -0.29815932 0.36479309
vn 0.67457400 -0.29815932 0.67531543
vn 0.36576181 -0.29815932 0.88165714
vn -5.2427194e-4 -0.29815932 0.95451597
vn -0.36479309 -0.29815932 0.88205840
vn -0.67531543 -0.29815932 0.67457400
vn -0.88165714 -0.29815932 0.36576181
vn -0.95451597 -0.29815932 -5.2427194e-4
vn -0.88205840 -0.29815932 -0.36479309
vn -0.67457400 -0.29815932 -0.67531543
vn -0.36576181 -0.29815932 -0.88165714
vn 5.2427194e-4 -0.29815932 -0.95451597
vn 0.36694219 -0.29995141 -0.88055811
vn 0.67429767 -0.30913825 -0.67063865
vn 0.87763187 -0.30913825 -0.36632752
vn -2.2015799e-2 -0.90577024 -0.42319685
vn -0.16093557 -0.91336691 0.37397946
vn 0.32300445 -0.90024420 0.29193921
vn 0.14610821 -0.90024420 0.41013750
vn 0.44617833 -0.89260958 -6.4599002e-2
vn -0.38569739 -0.89476573 -0.22501515
vn -0.29193921 -0.90024420 0.32300445
vn -0.41013750 -0.90024420 0.14610821
vn 2.2015799e-2 -0.90577024 0.42319685
vn 0.16093557 -0.91336691 -0.37397946
vn -0.32300445 -0.90024420 -0.29193921
vn -0.14610821 -0.90024420 -0.41013750
vn -0.42319685 -0.90577024 2.2015799e-2
vn 0.37397946 -0.91336691 0.16093557
vn 0.28370997 -0.90251323 -0.32400390
vn 0.40791168 -0.90251323 -0.13812291
vn 5.3616102e-18 1.00000000 4.2892882e-17
vn 0.47018652 -3.2113943e-2 0.88198262
vn -0.77291175 -6.3573590e-2 0.63132070
vn 0.87875981 -0.10129767 -0.46639036
vn 0.62651547 -0.14502979 0.76579679
vn -0.47295559 -0.10497791 -0.87481007
vn 0.76954500 -1.0038466e-2 -0.63851368
vn -0.87977852 -5.4577437e-2 0.47224047
vn -0.62646113 -9.8753561e-2 -0.77317151
vn 0.29781441 -0.39860817 0.86742038
vn -0.60709204 -0.39860817 0.68742329
vn 0.84537144 -0.45250800 -0.28387257
vn 0.67238804 -0.45250800 0.58577370
vn -0.29781441 -0.39860817 -0.86742038
vn 0.60709204 -0.39860817 -0.68742329
vn -0.86742038 -0.39860817 0.29781441
vn -0.68742329 -0.39860817 -0.60709204
vn 0.98353682 -9.1187067e-2 -0.15601358
vn 0.67957367 -0.50684457 -0.53036611
vn 0.85004127 -0.10353190 0.51644068
vn 0.42931790 -0.52514621 0.73478405
vn 0.56500951 -0.63432844 0.52762836
vn 0.27124526 -0.63432844 0.72391535
vn 0.14216285 -0.14692035 0.97887902
vn 0.51955793 -0.52034594 0.67771651
vn -0.50524921 -0.15007331 0.84982424
vn -0.73464903 -0.52579041 0.42876013
vn -0.52762836 -0.63432844 0.56500951
vn -0.72391535 -0.63432844 0.27124526
vn -0.98408349 -8.9612873e-2 0.15345752
vn -0.67869395 -0.50195912 0.53610780
vn -0.85004127 -0.10353190 -0.51644068
vn -0.42931790 -0.52514621 -0.73478405
vn -0.56500951 -0.63432844 -0.52762836
vn -0.27124526 -0.63432844 -0.72391535
vn -0.15345752 -8.9612873e-2 -0.98408349
vn -0.53610780 -0.50195912 -0.67869395
vn 0.51856016 -0.10509704 -0.84855759
vn 0.72972665 -0.52984601 -0.43215995
vn 0.51917839 -0.64429092 -0.56155409
vn 0.71748930 -0.64429092 -0.26476084
vn -0.24890268 -0.23337990 -0.93999004
vn -0.90103246 -0.16605963 -0.40070526
vn 0.99241601 -0.12148780 -1.8739584e-2
vn 0.59316951 -0.21569647 -0.77564487
vn -0.94065997 -0.22901613 0.25042051
vn -0.39583100 -0.19033594 0.89838191
vn -1.2193770e-2 -0.12932331 -0.99152750
vn -0.77653459 -0.20521688 -0.59571810
vn 0.25303529 -0.19696949 0.94719384
vn 0.91624463 -7.7261773e-2 0.39309846
vn -0.97730526 -0.20933556 3.2450648e-2
vn -0.58627192 -0.24805459 0.77120305
vn 0.94304075 -0.21853871 -0.25082857
vn 0.40140615 -0.17018785 -0.89994955
vn 1.6794768e-2 -0.10888911 0.99391202
vn 0.77838082 -0.19467386 0.59684620
vn -0.24221948 -0.84867300 -0.47019556
vn -0.75884302 -0.64689441 -7.5398277e-2
vn 0.72993320 -0.64689441 0.22073773
vn 0.40371767 -0.84867300 -0.34171067
vn -0.45758150 -0.85666055 0.23822653
vn -6.4428796e-2 -0.66755320 0.74176927
vn 0.22433836 -0.66755320 -0.70996128
vn -0.33158484 -0.85666055 -0.39520147
vn 0.24221948 -0.84867300 0.47019556
vn 0.75884302 -0.64689441 7.5398277e-2
vn -0.72993320 -0.64689441 -0.22073773
vn -0.40371767 -0.84867300 0.34171067
vn 0.47019556 -0.84867300 -0.24221948
vn 7.5398277e-2 -0.64689441 -0.75884302
vn -0.22073773 -0.64689441 0.72993320
vn 0.34171067 -0.84867300 0.40371767
vn 0.24388356 0.29807380 0.92286121
vn 0.58062691 0.33871727 -0.74036680
vn 5.0554934e-2 0.10501533 0.99318477
vn 0.41534936 8.6836041e-2 -0.90550782
vn 0.89736200 0.14397319 0.41714886
vn 0.89987993 0.35446660 -0.25410537
vn -0.58438417 0.24307661 0.77421502
vn -0.41534936 8.6836041e-2 0.90550782
vn 0.99433638 9.2392305e-2 -5.2524484e-2
vn -5.0554934e-2 0.10501533 -0.99318477
vn -0.89987993 0.35446660 0.25410537
vn -0.73370323 0.35885437 -0.57697756
vn -0.90561905 9.1005550e-2 -0.41421266
vn -0.25451147 0.34005187 -0.90531135
vn -0.99771724 3.6031220e-4 6.7529117e-2
vn 0.73370323 0.35885437 0.57697756
vn -0.51444468 -0.38570452 -0.76588426
vn -0.76845984 -0.37680108 0.51719476
vn 0.77889244 -0.25543889 -0.57278054
vn -0.49545439 -0.35343351 -0.79347949
vn 0.51444468 -0.38570452 0.76588426
vn 0.76845984 -0.37680108 -0.51719476
vn -0.77413467 -0.35297934 0.52547226
vn 0.51909306 -0.35555166 0.77725505
g sphere1
usemtl default
s 1
f 1//1 17//17 32//32 16//16
f 1//1 97//97 2//2
f 2//2 18//18 17//17 1//1
f 2//2 97//97 3//3
f 3//3 19//19 18//18 2//2
f 3//3 97//97 4//4
f 4//4 20//20 19//19 3//3
f 4//4 97//97 5//5
f 5//5 21//21 20//20 4//4
f 5//5 97//97 6//6
f 6//6 22//22 21//21 5//5
f 6//6 97//97 7//7
f 7//7 23//23 22//22 6//6
f 7//7 97//97 8//8
f 8//8 24//24 23//23 7//7
f 8//8 97//97 9//9
f 9//9 25//25 24//24 8//8
f 9//9 97//97 10//10
f 10//10 26//26 25//25 9//9
f 10//10 97//97 11//11
f 11//11 27//27 26//26 10//10
f 11//11 97//97 12//12
f 12//12 28//28 27//27 11//11
f 12//12 97//97 13//13
f 13//13 29//29 28//28 12//12
f 13//13 97//97 14//14
f 14//14 30//30 29//29 13//13
f 14//14 97//97 15//15
f 15//15 31//31 30//30 14//14
f 15//15 97//97 16//16
f 16//16 32//32 31//31 15//15
f 16//16 97//97 1//1
f 17//17 33//33 48//48 32//32
f 18//18 34//34 33//33 17//17
f 19//19 35//35 34//34 18//18
f 20//20 36//36 35//35 19//19
f 21//21 37//37 36//36 20//20
f 22//22 38//38 37//37 21//21
f 23//23 39//39 38//38 22//22
f 24//24 40//40 39//39 23//23
f 25//25 41//41 40//40 24//24
f 26//26 42//42 41//41 25//25
f 27//27 43//43 42//42 26//26
f 28//28 44//44 43//43 27//27
f 29//29 45//45 44//44 28//28
f 30//30 46//46 45//45 29//29
f 31//31 47//47 46//46 30//30
f 32//32 48//48 47//47 31//31
f 33//33 49//49 64//64 48//48
f 34//34 50//50 49//49 33//33
f 35//35 51//51 50//50 34//34
f 36//36 52//52 51//51 35//35
f 37//37 53//53 52//52 36//36
f 38//38 54//54 53//53 37//37
f 39//39 55//55 54//54 38//38
f 40//40 56//56 55//55 39//39
f 41//41 57//57 56//56 40//40
f 42//42 58//58 57//57 41//41
f 43//43 59//59 58//58 42//42
f 44//44 60//60 59//59 43//43
f 45//45 61//61 60//60 44//44
f 46//46 62//62 61//61 45//45
f 47//47 63//63 62//62 46//46
f 48//48 64//64 63//63 47//47
f 49//49 65//65 80//80 64//64
f 50//50 66//66 65//65 49//49
f 51//51 67//67 66//66 50//50
f 52//52 68//68 67//67 51//51
f 53//53 69//69 68//68 52//52
f 54//54 70//70 69//69 53//53
f 55//55 71//71 70//70 54//54
f 56//56 72//72 71//71 55//55
f 57//57 73//73 72//72 56//56
f 58//58 74//74 73//73 57//57
f 59//59 75//75 74//74 58//58
f 60//60 76//76 75//75 59//59
f 61//61 77//77 76//76 60//60
f 62//62 78//78 77//77 61//61
f 63//63 79//79 78//78 62//62
f 64//64 80//80 79//79 63//63
f 65//65 114//114 137//137 80//80
f 66//66 116//116 114//114 65//65
f 67//67 118//118 116//116 66//66
f 68//68 119//119 118//118 67//67
f 69//69 120//120 119//119 68//68
f 70//70 122//122 120//120 69//69
f 71//71 124//124 122//122 70//70
f 72//72 125//125 124//124 71//71
f 73//73 126//126 125//125 72//72
f 74//74 128//128 126//126 73//73
f 75//75 130//130 128//128 74//74
f 76//76 131//131 130//130 75//75
f 77//77 132//132 131//131 76//76
f 78//78 134//134 132//132 77//77
f 79//79 136//136 134//134 78//78
f 80//80 137//137 136//136 79//79
f 81//81 115//115 173//173 186//186
f 81//81 186//186 187//187 82//82
f 82//82 83//83 84//84 85//85 86//86 87//87 88//88 89//89 90//90 91//91 92//92 93//93 94//94 95//95 96//96 81//81
f 82//82 117//117 83//83
f 83//83 117//117 118//118
f 83//83 118//118 119//119 84//84
f 84//84 121//121 85//85
f 85//85 121//121 174//174 188//188
f 85//85 188//188 189//189 86//86
f 86//86 123//123 87//87
f 87//87 124//124 125//125 88//88
f 88//88 127//127 89//89
f 89//89 127//127 177//177 190//190
f 89//89 190//190 191//191 90//90
f 90//90 129//129 91//91
f 91//91 130//130 131//131 92//92
f 92//92 133//133 93//93
f 93//93 133//133 182//182 192//192
f 93//93 192//192 193//193 94//94
f 94//94 135//135 95//95
f 95//95 135//135 136//136
f 95//95 136//136 137//137 96//96
f 96//96 115//115 81//81
f 98//98 106//106 156//156 140//140
f 98//98 193//193 192//192 99//99
f 99//99 107//107 106//106 98//98
f 99//99 139//139 155//155 107//107
f 99//99 192//192 182//182 139//139
f 100//100 108//108 160//160 144//144
f 100//100 191//191 190//190 101//101
f 101//101 109//109 108//108 100//100
f 101//101 143//143 159//159 109//109
f 101//101 190//190 177//177 143//143
f 102//102 110//110 164//164 148//148
f 102//102 189//189 188//188 103//103
f 103//103 111//111 110//110 102//102
f 103//103 147//147 163//163 111//111
f 103//103 188//188 174//174 147//147
f 104//104 112//112 168//168 152//152
f 104//104 187//187 186//186 105//105
f 105//105 113//113 112//112 104//104
f 105//105 151//151 167//167 113//113
f 105//105 186//186 173//173 151//151
f 106//106 107//107 155//155 154//154 157//157 156//156
f 108//108 109//109 159//159 158//158 161//161 160//160
f 110//110 111//111 163//163 162//162 165//165 164//164
f 112//112 113//113 167//167 166//166 169//169 168//168
f 115//115 137//137 114//114
f 116//116 118//118 117//117
f 116//116 185//185 175//175 114//114
f 119//119 121//121 84//84
f 121//121 119//119 120//120
f 122//122 124//124 123//123
f 122//122 176//176 170//170 120//120
f 123//123 124//124 87//87
f 125//125 127//127 88//88
f 127//127 125//125 126//126
f 128//128 130//130 129//129
f 128//128 181//181 180//180 126//126
f 129//129 130//130 91//91
f 131//131 133//133 92//92
f 133//133 131//131 132//132
f 134//134 136//136 135//135
f 134//134 171//171 183//183 132//132
f 137//137 115//115 96//96
f 138//138 154//154 155//155 139//139
f 138//138 183//183 171//171 141//141
f 139//139 182//182 183//183 138//138
f 140//140 156//156 157//157 141//141
f 140//140 178//178 193//193 98//98
f 141//141 157//157 154//154 138//138
f 141//141 171//171 178//178 140//140
f 142//142 158//158 159//159 143//143
f 142//142 180//180 181//181 145//145
f 143//143 177//177 180//180 142//142
f 144//144 160//160 161//161 145//145
f 144//144 179//179 191//191 100//100
f 145//145 161//161 158//158 142//142
f 145//145 181//181 179//179 144//144
f 146//146 162//162 163//163 147//147
f 146//146 170//170 176//176 149//149
f 147//147 174//174 170//170 146//146
f 148//148 164//164 165//165 149//149
f 148//148 184//184 189//189 102//102
f 149//149 165//165 162//162 146//146
f 149//149 176//176 184//184 148//148
f 150//150 166//166 167//167 151//151
f 150//150 175//175 185//185 153//153
f 151//151 173//173 175//175 150//150
f 152//152 168//168 169//169 153//153
f 152//152 172//172 187//187 104//104
f 153//153 169//169 166//166 150//150
f 153//153 185//185 172//172 152//152
f 170//170 174//174 121//121 120//120
f 172//172 185//185 116//116 117//117
f 175//175 173//173 115//115 114//114
f 178//178 171//171 134//134 135//135
f 179//179 181//181 128//128 129//129
f 180//180 177//177 127//127 126//126
f 183//183 182//182 133//133 132//132
f 184//184 176//176 122//122 123//123
f 187//187 172//172 117//117 82//82
f 189//189 184//184 123//123 86//86
f 191//191 179//179 129//129 90//90
f 193//193 178//178 135//135 94//94
