# Exported from Wings 3D 1.4.1
mtllib smallcrystal.mtl
o cylinder3
#18 vertices, 14 faces
v 0.68947200 2.59802553 -0.48361417
v 0.34473600 2.69122672 0.10616737
v -0.34473600 2.69122672 0.10616737
v -0.68947200 2.59802553 -0.48361417
v -0.34473600 2.50482434 -1.07339571
v 0.34473600 2.50482434 -1.07339571
v 0.50400000 0.62253976 -0.17143479
v 0.25200000 0.69066929 0.25969206
v -0.25200000 0.69066929 0.25969206
v -0.50400000 0.62253976 -0.17143479
v -0.25200000 0.55441023 -0.60256165
v 0.25200000 0.55441023 -0.60256165
v 5.8605120e-2 3.08409312 -0.45765913
v 0.11721024 3.06824892 -0.55792199
v 5.8605120e-2 3.05240472 -0.65818485
v -5.8605120e-2 3.05240472 -0.65818485
v -0.11721024 3.06824892 -0.55792199
v -5.8605120e-2 3.08409312 -0.45765913
vn 0.86324592 -0.15686710 -0.47979078
vn 0.86324592 -1.2783821e-3 0.50478198
vn 0.59993966 0.76640326 0.22956144
vn 0.59993966 0.65827202 -0.45469808
vn 9.2726080e-17 7.6515979e-2 0.99706836
vn 0.86324592 -1.2783821e-3 0.50478198
vn 0.59993966 0.76640326 0.22956144
vn 0.0000000e+0 0.82046887 0.57169120
vn -0.86324592 -1.2783821e-3 0.50478198
vn 9.2726080e-17 7.6515979e-2 0.99706836
vn -0.59993966 0.76640326 0.22956144
vn 0.0000000e+0 0.82046887 0.57169120
vn -0.86324592 -0.15686710 -0.47979078
vn -0.86324592 -1.2783821e-3 0.50478198
vn -0.59993966 0.65827202 -0.45469808
vn -0.59993966 0.76640326 0.22956144
vn -5.5635648e-16 -0.23466147 -0.97207716
vn -0.86324592 -0.15686710 -0.47979078
vn -6.5089018e-16 0.60420641 -0.79682785
vn -0.59993966 0.65827202 -0.45469808
vn 0.86324592 -0.15686710 -0.47979078
vn -5.5635648e-16 -0.23466147 -0.97207716
vn 0.59993966 0.65827202 -0.45469808
vn -6.5089018e-16 0.60420641 -0.79682785
vn 2.6942703e-17 -0.98774289 0.15608969
vn 0.86324592 -0.15686710 -0.47979078
vn 0.86324592 -1.2783821e-3 0.50478198
vn 2.6942703e-17 -0.98774289 0.15608969
vn 9.2726080e-17 7.6515979e-2 0.99706836
vn 0.86324592 -1.2783821e-3 0.50478198
vn 2.6942703e-17 -0.98774289 0.15608969
vn -0.86324592 -1.2783821e-3 0.50478198
vn 9.2726080e-17 7.6515979e-2 0.99706836
vn 2.6942703e-17 -0.98774289 0.15608969
vn -0.86324592 -0.15686710 -0.47979078
vn -0.86324592 -1.2783821e-3 0.50478198
vn 2.6942703e-17 -0.98774289 0.15608969
vn -5.5635648e-16 -0.23466147 -0.97207716
vn -0.86324592 -0.15686710 -0.47979078
vn 2.6942703e-17 -0.98774289 0.15608969
vn 0.86324592 -0.15686710 -0.47979078
vn -5.5635648e-16 -0.23466147 -0.97207716
vn 4.8601230e-17 0.98774289 -0.15608969
vn 0.59993966 0.76640326 0.22956144
vn 0.0000000e+0 0.82046887 0.57169120
vn 4.8601230e-17 0.98774289 -0.15608969
vn 0.59993966 0.76640326 0.22956144
vn 0.59993966 0.65827202 -0.45469808
vn 4.8601230e-17 0.98774289 -0.15608969
vn 0.59993966 0.65827202 -0.45469808
vn -6.5089018e-16 0.60420641 -0.79682785
vn 4.8601230e-17 0.98774289 -0.15608969
vn -6.5089018e-16 0.60420641 -0.79682785
vn -0.59993966 0.65827202 -0.45469808
vn 4.8601230e-17 0.98774289 -0.15608969
vn -0.59993966 0.65827202 -0.45469808
vn -0.59993966 0.76640326 0.22956144
vn 4.8601230e-17 0.98774289 -0.15608969
vn -0.59993966 0.76640326 0.22956144
vn 0.0000000e+0 0.82046887 0.57169120
g cylinder3
usemtl default
s 1
f 1//1 7//26 12//41 6//21
f 3//10 9//33 8//29 2//5
f 5//18 11//39 10//35 4//13
f 14//46 15//49 16//52 17//55 18//58 13//43
s 2
f 2//6 8//30 7//27 1//2
f 2//8 13//45 18//60 3//12
f 4//14 10//36 9//32 3//9
f 4//15 17//56 16//54 5//20
f 6//22 12//42 11//38 5//17
f 6//23 15//50 14//48 1//4
s 3
f 1//3 14//47 13//44 2//7
f 3//11 18//59 17//57 4//16
f 5//19 16//53 15//51 6//24
f 8//28 9//31 10//34 11//37 12//40 7//25
o sphere1
#47 vertices, 54 faces
v 0.50000000 0.86602540 0.0000000e+0
v 0.45124899 0.99424978 0.43956603
v 0.15505086 0.99424978 0.61057610
v -0.25000000 0.86602540 0.43301270
v -0.46984631 0.86602540 0.17101007
v -0.46984631 0.86602540 -0.17101007
v -0.25000000 0.86602540 -0.43301270
v 8.6824089e-2 0.86602540 -0.49240388
v 0.38302222 0.86602540 -0.32139380
v 0.97200384 0.50000000 -1.4196109e-2
v 0.73164071 0.62822438 0.67484262
v 0.21861050 0.62822438 0.97104076
v -0.39039385 0.50000000 0.67582996
v -0.88289590 0.50000000 0.34662627
v -0.95289492 0.54571964 -0.41291458
v -0.57210995 0.54571964 -0.86671645
v 0.24117301 0.54571964 -1.01012017
v 0.66498705 0.54571964 -0.66835937
v 1.10063268 6.1232340e-17 -5.1663639e-2
v 0.72039047 6.1232340e-17 0.55579876
v 0.24728145 6.1232340e-17 1.04984225
v -0.42226044 6.1232340e-17 0.80595957
v -0.99095281 6.1232340e-17 0.42582788
v -1.07878986 4.5719642e-2 -0.45873659
v -0.63436672 4.5719642e-2 -0.84793761
v 0.18856078 4.5719642e-2 -1.25358200
v 0.73943878 4.5719642e-2 -0.77974218
v 0.99424978 -0.62822438 -4.6669857e-2
v 0.59777141 -0.50000000 0.50181954
v 0.18804697 -0.50000000 0.92967375
v -0.53754217 -0.62822438 0.83771064
v -0.91832715 -0.62822438 0.38390877
v -0.81379768 -0.50000000 -0.29619813
v -0.37141630 -0.50000000 -0.68211637
v 0.15993348 -0.50000000 -0.94403380
v 0.79163833 -0.62822438 -0.60334026
v 0.62822438 -0.99424978 -4.6669857e-2
v 0.38302222 -0.86602540 0.32139380
v 8.6824089e-2 -0.86602540 0.49240388
v -0.35452947 -0.99424978 0.52072334
v -0.57437578 -0.99424978 0.25872071
v -0.46984631 -0.86602540 -0.17101007
v -0.25000000 -0.86602540 -0.43301270
v 8.6824089e-2 -0.86602540 -0.49240388
v 0.51124660 -0.99424978 -0.36806366
v 0.0000000e+0 1.00000000 0.0000000e+0
v 0.0000000e+0 -1.00000000 0.0000000e+0
vn 0.46429660 0.87435465 -0.14118288
vn 0.36401031 0.92449880 0.11313028
vn -0.12103987 0.91054065 0.39530377
vn -0.38800347 0.83327446 0.39383624
vn -0.40913549 0.88730499 0.21283329
vn -0.38362929 0.91656101 -0.11289150
vn -0.19196773 0.92131712 -0.33811707
vn 8.0983586e-2 0.91915243 -0.38548730
vn 0.33711970 0.90527034 -0.25852645
vn 0.86601208 0.49718106 -5.3235996e-2
vn 0.74210818 0.40776728 0.53197865
vn 4.0517883e-2 0.43285584 0.90055212
vn -0.48246421 0.43582112 0.75979486
vn -0.72117877 0.54152151 0.43203661
vn -0.77384982 0.58411565 -0.24487826
vn -0.42179439 0.58143913 -0.69571405
vn 0.15383599 0.62742424 -0.76333041
vn 0.65400406 0.57335410 -0.49350154
vn 0.99870204 -2.2054052e-3 5.0885858e-2
vn 0.77466748 -0.10569400 0.62347339
vn 0.20528204 -3.9072950e-2 0.97792259
vn -0.46745604 9.9340847e-2 0.87841690
vn -0.88603238 5.9616006e-2 0.45977445
vn -0.92261562 -0.10834527 -0.37019147
vn -0.53748456 -0.14081583 -0.83143325
vn 0.12954998 -6.9068555e-2 -0.98916446
vn 0.77932768 3.0002164e-2 -0.62589795
vn 0.87668696 -0.46008920 0.14049163
vn 0.65948593 -0.44001129 0.60948205
vn 0.30257132 -0.47525725 0.82618469
vn -0.38226584 -0.40640125 0.82988605
vn -0.84264252 -0.47032485 0.26219861
vn -0.73545216 -0.54106471 -0.40787142
vn -0.45144986 -0.56533059 -0.69035813
vn -1.3727580e-3 -0.58138042 -0.81363071
vn 0.62574505 -0.50164855 -0.59732057
vn 0.36827987 -0.91054065 0.18784478
vn 0.32047689 -0.83327446 0.45049777
vn 0.26472810 -0.85623300 0.44360352
vn -4.5273950e-2 -0.92303674 0.38203855
vn -0.39638173 -0.91741661 -3.5046846e-2
vn -0.42149874 -0.83663733 -0.34982395
vn -0.27829112 -0.85086460 -0.44562707
vn -9.6411145e-2 -0.85713655 -0.50598599
vn 0.17377433 -0.92362322 -0.34164694
vn -4.9443399e-2 0.99509869 -8.5638480e-2
vn -1.7270243e-2 -0.99940330 -2.9912938e-2
g sphere1
usemtl default
s 1
f 19//61 28//70 36//78 27//69
f 19//61 64//106 20//62
f 20//62 29//71 28//70 19//61
f 20//62 64//106 21//63
f 21//63 30//72 29//71 20//62
f 21//63 64//106 22//64
f 22//64 31//73 30//72 21//63
f 22//64 64//106 23//65
f 23//65 32//74 31//73 22//64
f 23//65 64//106 24//66
f 24//66 33//75 32//74 23//65
f 24//66 64//106 25//67
f 25//67 34//76 33//75 24//66
f 25//67 64//106 26//68
f 26//68 35//77 34//76 25//67
f 26//68 64//106 27//69
f 27//69 36//78 35//77 26//68
f 27//69 64//106 19//61
f 28//70 37//79 45//87 36//78
f 29//71 38//80 37//79 28//70
f 30//72 39//81 38//80 29//71
f 31//73 40//82 39//81 30//72
f 32//74 41//83 40//82 31//73
f 33//75 42//84 41//83 32//74
f 34//76 43//85 42//84 33//75
f 35//77 44//86 43//85 34//76
f 36//78 45//87 44//86 35//77
f 37//79 46//88 54//96 45//87
f 38//80 47//89 46//88 37//79
f 39//81 48//90 47//89 38//80
f 40//82 49//91 48//90 39//81
f 41//83 50//92 49//91 40//82
f 42//84 51//93 50//92 41//83
f 43//85 52//94 51//93 42//84
f 44//86 53//95 52//94 43//85
f 45//87 54//96 53//95 44//86
f 46//88 55//97 63//105 54//96
f 47//89 56//98 55//97 46//88
f 48//90 57//99 56//98 47//89
f 49//91 58//100 57//99 48//90
f 50//92 59//101 58//100 49//91
f 51//93 60//102 59//101 50//92
f 52//94 61//103 60//102 51//93
f 53//95 62//104 61//103 52//94
f 54//96 63//105 62//104 53//95
f 55//97 65//107 63//105
f 56//98 65//107 55//97
f 57//99 65//107 56//98
f 58//100 65//107 57//99
f 59//101 65//107 58//100
f 60//102 65//107 59//101
f 61//103 65//107 60//102
f 62//104 65//107 61//103
f 63//105 65//107 62//104
